HIERARCHY
ROOT Hips
{
	OFFSET -0.001795 -0.223333 0.028219
	CHANNELS 6 Xposition Yposition Zposition Zrotation Yrotation Xrotation 
	JOINT LeftUpLeg
	{
		OFFSET 0.069520 -0.091406 -0.006815
		CHANNELS 3 Zrotation Yrotation Xrotation
		JOINT LeftLeg
		{
			OFFSET 0.034277 -0.375199 -0.004496
			CHANNELS 3 Zrotation Yrotation Xrotation
			JOINT LeftFoot
			{
				OFFSET -0.013596 -0.397961 -0.043693
				CHANNELS 3 Zrotation Yrotation Xrotation
				JOINT LeftToe
				{
					OFFSET 0.026358 -0.055791 0.119288
					CHANNELS 3 Zrotation Yrotation Xrotation
					End Site
					{
						OFFSET 0.000000 0.000000 0.000000
					}
				}
			}
		}
	}
	JOINT RightUpLeg
	{
		OFFSET -0.067670 -0.090522 -0.004320
		CHANNELS 3 Zrotation Yrotation Xrotation
		JOINT RightLeg
		{
			OFFSET -0.038290 -0.382569 -0.008850
			CHANNELS 3 Zrotation Yrotation Xrotation
			JOINT RightFoot
			{
				OFFSET 0.015774 -0.398415 -0.042312
				CHANNELS 3 Zrotation Yrotation Xrotation
				JOINT RightToe
				{
					OFFSET -0.025372 -0.048144 0.123348
					CHANNELS 3 Zrotation Yrotation Xrotation
					End Site
					{
						OFFSET 0.000000 0.000000 0.000000
					}
				}
			}
		}
	}
	JOINT Spine
	{
		OFFSET -0.002533 0.108963 -0.026696
		CHANNELS 3 Zrotation Yrotation Xrotation
		JOINT Spine1
		{
			OFFSET 0.005487 0.135180 0.001092
			CHANNELS 3 Zrotation Yrotation Xrotation
			JOINT Spine2
			{
				OFFSET 0.001457 0.052922 0.025425
				CHANNELS 3 Zrotation Yrotation Xrotation
				JOINT Neck
				{
					OFFSET -0.002778 0.213870 -0.042857
					CHANNELS 3 Zrotation Yrotation Xrotation
					JOINT Head
					{
						OFFSET 0.005152 0.064970 0.051349
						CHANNELS 3 Zrotation Yrotation Xrotation
						End Site
						{
							OFFSET 0.000000 0.000000 0.000000
						}
					}
				}
				JOINT LeftShoulder
				{
					OFFSET 0.078845 0.121749 -0.034090
					CHANNELS 3 Zrotation Yrotation Xrotation
					JOINT LeftArm
					{
						OFFSET 0.090977 0.030469 -0.008868
						CHANNELS 3 Zrotation Yrotation Xrotation
						JOINT LeftForeArm
						{
							OFFSET 0.259612 -0.012772 -0.027456
							CHANNELS 3 Zrotation Yrotation Xrotation
							JOINT LeftHand
							{
								OFFSET 0.249234 0.008986 -0.001171
								CHANNELS 3 Zrotation Yrotation Xrotation
								End Site
								{
									OFFSET 0.000000 0.000000 0.000000
								}
							}
						}
					}
				}
				JOINT RightShoulder
				{
					OFFSET -0.081759 0.118833 -0.038615
					CHANNELS 3 Zrotation Yrotation Xrotation
					JOINT RightArm
					{
						OFFSET -0.096012 0.032551 -0.009143
						CHANNELS 3 Zrotation Yrotation Xrotation
						JOINT RightForeArm
						{
							OFFSET -0.253742 -0.013329 -0.021401
							CHANNELS 3 Zrotation Yrotation Xrotation
							JOINT RightHand
							{
								OFFSET -0.255298 0.007772 -0.005559
								CHANNELS 3 Zrotation Yrotation Xrotation
								End Site
								{
									OFFSET 0.000000 0.000000 0.000000
								}
							}
						}
					}
				}
			}
		}
	}
}
MOTION
Frames: 10
Frame Time: 0.050000
0.013711 0.953474 -0.021358 1.793051 -7.786057 5.651777 -0.016897 0.107268 1.151765 1.420904 0.323684 -9.678517 -2.662462 -0.013987 14.480385 0.000000 0.000000 0.000000 -2.445728 -0.048452 2.513060 -0.011545 -0.371139 -11.946768 -0.260462 -7.880116 16.011494 0.000000 0.000000 0.000000 5.418916 -0.421419 3.345964 -2.456748 1.136244 -27.561872 -0.778952 8.885061 29.637676 24.857065 -7.988590 -40.408123 0.000000 0.000000 0.000000 18.920911 -17.718273 3.924335 -12.190521 -56.749889 -0.029294 94.546271 -43.349344 -43.557940 0.000000 0.000000 0.000000 -5.109019 -0.923742 -0.329705 20.792522 32.645811 1.211230 -82.111521 -1.767918 5.730330 0.000000 0.000000 0.000000 
0.013222 0.953498 -0.022559 1.632637 -7.533221 5.470091 0.184388 0.117385 1.300931 1.345882 0.321381 -9.609368 -2.555495 0.174361 14.408982 0.000000 0.000000 0.000000 -2.218007 -0.070009 2.527954 -0.143709 -0.367651 -11.563151 -0.463778 -8.021176 15.474316 0.000000 0.000000 0.000000 5.416307 -0.447594 3.689862 -2.508165 1.154898 -27.852317 -0.683040 9.253094 29.946440 25.024943 -7.965676 -40.676667 0.000000 0.000000 0.000000 18.988594 -18.254912 4.057972 -10.941963 -57.525641 -0.742849 91.603851 -42.436015 -40.910383 0.000000 0.000000 0.000000 -4.687777 -0.753945 -0.312328 20.539858 32.879584 1.208057 -81.617204 -2.278275 6.304156 0.000000 0.000000 0.000000 
0.012827 0.953476 -0.023724 1.533252 -7.384477 5.346219 0.261204 0.115853 1.302928 1.501032 0.310772 -9.529837 -2.864957 -0.285934 14.456311 0.000000 0.000000 0.000000 -2.076900 -0.074222 2.412384 -0.132931 -0.358333 -11.107551 -0.687115 -8.321467 15.270155 0.000000 0.000000 0.000000 5.326932 -0.442504 3.704990 -2.552880 1.157227 -27.514811 -0.641308 9.457841 29.762569 24.645190 -7.703405 -40.839140 0.000000 0.000000 0.000000 19.139475 -18.489312 4.130557 -9.810171 -58.391165 -1.343374 87.518135 -41.285590 -37.390186 0.000000 0.000000 0.000000 -4.369149 -0.457727 -0.231611 20.798208 33.023828 1.300827 -81.986027 -2.639278 6.788849 0.000000 0.000000 0.000000 
0.012672 0.953232 -0.024870 1.332340 -7.191193 5.279484 0.310698 0.099660 1.146316 1.482724 0.295106 -9.262217 -2.852626 -0.388179 14.015329 0.000000 0.000000 0.000000 -1.894269 -0.082309 2.313428 -0.202901 -0.351639 -10.739978 -0.803797 -8.400298 14.952818 0.000000 0.000000 0.000000 5.322758 -0.454926 3.865121 -2.442781 1.134286 -27.485676 -0.540556 9.807923 29.660741 24.545470 -7.624002 -40.757394 0.000000 0.000000 0.000000 19.444632 -18.611604 4.188019 -9.049343 -59.584840 -1.872189 85.262686 -40.393390 -35.366033 0.000000 0.000000 0.000000 -4.104124 -0.349750 -0.217725 21.352138 33.128348 1.449083 -82.885934 -2.732025 7.229672 0.000000 0.000000 0.000000 
0.012784 0.953243 -0.026149 1.373396 -6.646928 5.238954 0.328294 0.071667 0.858314 1.350664 0.283635 -8.991181 -3.054453 -0.624526 14.048050 0.000000 0.000000 0.000000 -1.866102 -0.084866 2.274608 -0.371830 -0.346865 -10.364963 -0.965985 -8.570969 14.838338 0.000000 0.000000 0.000000 5.314951 -0.454209 3.853650 -2.506218 1.147688 -27.347070 -0.489744 9.685822 29.477388 23.934052 -7.357295 -40.605481 0.000000 0.000000 0.000000 19.803980 -18.840307 4.221922 -7.862773 -60.767217 -2.559989 82.871921 -39.363424 -33.169542 0.000000 0.000000 0.000000 -4.030252 -0.238359 -0.191984 21.960713 33.494143 1.642534 -84.049312 -2.890681 7.680508 0.000000 0.000000 0.000000 
0.013160 0.953058 -0.027714 1.393597 -6.334683 5.236276 0.201737 0.025259 0.343069 1.217707 0.261060 -8.490091 -3.074065 -0.730844 13.713092 0.000000 0.000000 0.000000 -1.863808 -0.064478 1.975791 -0.328074 -0.329508 -9.690365 -1.226900 -8.907163 14.582645 0.000000 0.000000 0.000000 5.237110 -0.451742 3.870637 -2.121317 1.069800 -27.301913 -0.498971 9.539587 29.680863 23.814261 -7.383543 -40.326154 0.000000 0.000000 0.000000 20.476202 -18.824716 4.143288 -7.123714 -61.465984 -2.989169 81.768022 -38.208937 -31.592172 0.000000 0.000000 0.000000 -4.211854 -0.446698 -0.268065 22.837063 34.019335 1.900638 -85.736836 -2.751109 7.921073 0.000000 0.000000 0.000000 
0.013703 0.952917 -0.029365 1.482477 -5.856813 5.349227 0.138051 -0.016796 -0.112851 1.061938 0.259428 -8.342388 -3.213207 -0.932018 13.598856 0.000000 0.000000 0.000000 -1.971221 -0.029844 1.583501 -0.375042 -0.313127 -9.080639 -1.441326 -9.074097 14.086018 0.000000 0.000000 0.000000 5.321756 -0.463627 3.926670 -2.212541 1.096849 -27.468011 -0.377573 9.139715 29.707742 23.319475 -7.187683 -40.219680 0.000000 0.000000 0.000000 20.921470 -18.927598 4.092705 -7.121403 -62.246653 -2.991215 80.836629 -38.454699 -31.226957 0.000000 0.000000 0.000000 -4.528530 -0.664026 -0.338066 24.178245 34.266273 2.221301 -86.917860 -1.995520 7.514839 0.000000 0.000000 0.000000 
0.014191 0.952647 -0.030912 1.570427 -5.529303 5.363333 -0.024304 -0.050855 -0.496663 1.082195 0.238840 -7.965535 -3.474179 -1.309827 13.606138 0.000000 0.000000 0.000000 -2.046911 -0.008948 1.348236 -0.400793 -0.302061 -8.698341 -1.695584 -9.419657 13.874465 0.000000 0.000000 0.000000 5.291327 -0.455271 3.838841 -1.989298 1.052273 -27.368741 -0.427158 8.864103 29.748077 22.364793 -6.875735 -39.728986 0.000000 0.000000 0.000000 21.086919 -18.726487 4.044165 -7.687872 -62.644559 -2.692805 80.211600 -38.931439 -31.232250 0.000000 0.000000 0.000000 -4.857856 -0.875212 -0.407374 25.404133 34.514363 2.530222 -87.570957 -0.917782 6.751457 0.000000 0.000000 0.000000 
0.014281 0.952649 -0.032203 1.568144 -5.647190 5.255183 -0.139641 -0.048980 -0.489484 1.203823 0.227928 -7.864486 -3.597508 -1.550863 13.550424 0.000000 0.000000 0.000000 -2.092706 0.019943 1.003489 -0.524222 -0.279839 -8.145326 -1.724199 -9.416799 13.608563 0.000000 0.000000 0.000000 5.365398 -0.471785 4.014075 -1.911797 1.037772 -27.492998 -0.412978 8.698283 29.843490 21.951285 -6.879477 -39.157390 0.000000 0.000000 0.000000 20.578906 -18.619980 4.044402 -9.369894 -62.119031 -1.718134 80.583297 -40.327168 -32.484018 0.000000 0.000000 0.000000 -4.531005 -0.627013 -0.310633 26.098316 34.861136 2.706448 -88.041942 0.639732 5.328689 0.000000 0.000000 0.000000 
0.013786 0.952908 -0.033394 1.646925 -5.852146 5.259507 -0.284369 -0.048180 -0.494294 1.267164 0.225128 -7.865769 -3.576115 -1.620366 13.355058 0.000000 0.000000 0.000000 -2.256202 0.033717 0.961963 -0.451777 -0.284047 -8.252607 -1.637170 -9.309470 13.682738 0.000000 0.000000 0.000000 5.337852 -0.469064 4.004880 -1.978937 1.058747 -27.830822 -0.292578 8.636214 30.212879 20.877823 -6.499026 -38.842351 0.000000 0.000000 0.000000 19.850445 -18.452945 4.064491 -10.489326 -61.180881 -1.090901 80.816302 -41.067662 -33.169109 0.000000 0.000000 0.000000 -4.522928 -0.756856 -0.343930 27.003906 35.400415 2.977866 -87.721091 1.684092 4.368281 0.000000 0.000000 0.000000 
